<svg xmlns="http://www.w3.org/2000/svg" viewBox="0 0 800 600" width="800" height="600">
  <defs>
    <radialGradient id="bgGlow" cx="50%" cy="45%" r="60%">
      <stop offset="0%" stop-color="#ffe082" stop-opacity="0.25"/>
      <stop offset="100%" stop-color="#e65100"/>
    </radialGradient>
    <filter id="shadow" x="-20%" y="-20%" width="140%" height="140%">
      <feDropShadow dx="0" dy="10" stdDeviation="14" flood-color="#000000" flood-opacity="0.75"/>
    </filter>
  </defs>

  <!-- Background -->
  <rect width="800" height="600" fill="#e65100"/>
  <rect width="800" height="600" fill="url(#bgGlow)"/>

  <!-- Gourmet Bowl Layer -->
  <g filter="url(#shadow)">
    <circle cx="400" cy="270" r="170" fill="#f57c00" stroke="#ffe082" stroke-width="4"/>
    <circle cx="400" cy="270" r="150" fill="#121212"/>
    <ellipse cx="400" cy="265" rx="140" ry="115" fill="#fff176" opacity="0.25"/>
  </g>

  <!-- Rice Grains Heap -->
  <g filter="url(#shadow)">
    <ellipse cx="400" cy="265" rx="125" ry="95" fill="#fff176" opacity="0.92"/>
    <ellipse cx="400.0" cy="270.0" rx="15" ry="6.2" fill="#fff176" transform="rotate(10 400.0 270.0)" opacity="0.85"/>
<ellipse cx="403.8" cy="274.2" rx="15" ry="6.2" fill="#fff176" transform="rotate(17 403.8 274.2)" opacity="0.9"/>
<ellipse cx="394.2" cy="279.1" rx="15" ry="6.2" fill="#fff176" transform="rotate(24 394.2 279.1)" opacity="0.95"/>
<ellipse cx="379.2" cy="272.1" rx="15" ry="6.2" fill="#fff176" transform="rotate(31 379.2 272.1)" opacity="0.85"/>
<ellipse cx="381.7" cy="254.9" rx="15" ry="6.2" fill="#fff176" transform="rotate(38 381.7 254.9)" opacity="0.9"/>
<ellipse cx="409.9" cy="246.0" rx="15" ry="6.2" fill="#fff176" transform="rotate(45 409.9 246.0)" opacity="0.95"/>
<ellipse cx="440.3" cy="261.6" rx="15" ry="6.2" fill="#fff176" transform="rotate(52 440.3 261.6)" opacity="0.85"/>
<ellipse cx="436.9" cy="293.0" rx="15" ry="6.2" fill="#fff176" transform="rotate(59 436.9 293.0)" opacity="0.9"/>
<ellipse cx="391.9" cy="309.6" rx="15" ry="6.2" fill="#fff176" transform="rotate(66 391.9 309.6)" opacity="0.95"/>
<ellipse cx="342.6" cy="288.5" rx="15" ry="6.2" fill="#fff176" transform="rotate(73 342.6 288.5)" opacity="0.85"/>
<ellipse cx="341.3" cy="270.0" rx="15" ry="6.2" fill="#fff176" transform="rotate(80 341.3 270.0)" opacity="0.9"/>
<ellipse cx="400.3" cy="265.0" rx="15" ry="6.2" fill="#fff176" transform="rotate(87 400.3 265.0)" opacity="0.95"/>
<ellipse cx="403.4" cy="264.6" rx="15" ry="6.2" fill="#fff176" transform="rotate(94 403.4 264.6)" opacity="0.85"/>
<ellipse cx="410.0" cy="276.3" rx="15" ry="6.2" fill="#fff176" transform="rotate(101 410.0 276.3)" opacity="0.9"/>
<ellipse cx="402.5" cy="289.8" rx="15" ry="6.2" fill="#fff176" transform="rotate(108 402.5 289.8)" opacity="0.95"/>
<ellipse cx="381.0" cy="286.3" rx="15" ry="6.2" fill="#fff176" transform="rotate(115 381.0 286.3)" opacity="0.85"/>
<ellipse cx="369.4" cy="261.4" rx="15" ry="6.2" fill="#fff176" transform="rotate(122 369.4 261.4)" opacity="0.9"/>
<ellipse cx="389.3" cy="236.4" rx="15" ry="6.2" fill="#fff176" transform="rotate(129 389.3 236.4)" opacity="0.95"/>
<ellipse cx="430.4" cy="240.0" rx="15" ry="6.2" fill="#fff176" transform="rotate(136 430.4 240.0)" opacity="0.85"/>
<ellipse cx="452.4" cy="276.7" rx="15" ry="6.2" fill="#fff176" transform="rotate(143 452.4 276.7)" opacity="0.9"/>
<ellipse cx="424.5" cy="270.0" rx="15" ry="6.2" fill="#fff176" transform="rotate(150 424.5 270.0)" opacity="0.95"/>
<ellipse cx="363.3" cy="274.2" rx="15" ry="6.2" fill="#fff176" transform="rotate(157 363.3 274.2)" opacity="0.85"/>
<ellipse cx="326.0" cy="269.9" rx="15" ry="6.2" fill="#fff176" transform="rotate(164 326.0 269.9)" opacity="0.9"/>
<ellipse cx="399.5" cy="257.3" rx="15" ry="6.2" fill="#fff176" transform="rotate(171 399.5 257.3)" opacity="0.95"/>
<ellipse cx="403.4" cy="251.9" rx="15" ry="6.2" fill="#fff176" transform="rotate(178 403.4 251.9)" opacity="0.85"/>
<ellipse cx="414.9" cy="266.7" rx="15" ry="6.2" fill="#fff176" transform="rotate(185 414.9 266.7)" opacity="0.9"/>
<ellipse cx="414.2" cy="292.9" rx="15" ry="6.2" fill="#fff176" transform="rotate(192 414.2 292.9)" opacity="0.95"/>
<ellipse cx="391.5" cy="303.5" rx="15" ry="6.2" fill="#fff176" transform="rotate(199 391.5 303.5)" opacity="0.85"/>

  </g>

  <!-- Spec Tag -->
  <g transform="translate(400, 415)">
    <rect x="-90" y="-15" width="180" height="30" rx="15" fill="#000000" fill-opacity="0.7" stroke="#ffd54f" stroke-width="1.5"/>
    <text x="0" y="5" font-family="system-ui, -apple-system, sans-serif" font-size="12" font-weight="800" fill="#ffd54f" letter-spacing="1" text-anchor="middle">5.30 mm Parboiled</text>
  </g>

  <!-- Title Card -->
  <rect x="90" y="455" width="620" height="110" rx="20" fill="#09090b" fill-opacity="0.9" stroke="#ffffff" stroke-width="1" stroke-opacity="0.12" filter="url(#shadow)"/>
  <text x="400" y="500" font-family="system-ui, -apple-system, sans-serif" font-size="28" font-weight="800" fill="#ffffff" text-anchor="middle">Swarna Parboiled</text>
  <text x="400" y="535" font-family="system-ui, -apple-system, sans-serif" font-size="14" font-weight="600" fill="#ffd54f" letter-spacing="1.5" text-anchor="middle">OFFICIAL INDIAN EXPORT VARIETY</text>
</svg>