<svg xmlns="http://www.w3.org/2000/svg" viewBox="0 0 800 600" width="800" height="600">
  <defs>
    <radialGradient id="bgGlow" cx="50%" cy="45%" r="60%">
      <stop offset="0%" stop-color="#ef9a9a" stop-opacity="0.25"/>
      <stop offset="100%" stop-color="#b71c1c"/>
    </radialGradient>
    <filter id="shadow" x="-20%" y="-20%" width="140%" height="140%">
      <feDropShadow dx="0" dy="10" stdDeviation="14" flood-color="#000000" flood-opacity="0.75"/>
    </filter>
  </defs>

  <!-- Background -->
  <rect width="800" height="600" fill="#b71c1c"/>
  <rect width="800" height="600" fill="url(#bgGlow)"/>

  <!-- Gourmet Bowl Layer -->
  <g filter="url(#shadow)">
    <circle cx="400" cy="270" r="170" fill="#c62828" stroke="#ef9a9a" stroke-width="4"/>
    <circle cx="400" cy="270" r="150" fill="#121212"/>
    <ellipse cx="400" cy="265" rx="140" ry="115" fill="#ffee58" opacity="0.25"/>
  </g>

  <!-- Rice Grains Heap -->
  <g filter="url(#shadow)">
    <ellipse cx="400" cy="265" rx="125" ry="95" fill="#ffee58" opacity="0.92"/>
    <ellipse cx="400.0" cy="270.0" rx="12" ry="5.8" fill="#ffee58" transform="rotate(-22 400.0 270.0)" opacity="0.85"/>
<ellipse cx="403.8" cy="274.2" rx="12" ry="5.8" fill="#ffee58" transform="rotate(-15 403.8 274.2)" opacity="0.9"/>
<ellipse cx="394.2" cy="279.1" rx="12" ry="5.8" fill="#ffee58" transform="rotate(-8 394.2 279.1)" opacity="0.95"/>
<ellipse cx="379.2" cy="272.1" rx="12" ry="5.8" fill="#ffee58" transform="rotate(-1 379.2 272.1)" opacity="0.85"/>
<ellipse cx="381.7" cy="254.9" rx="12" ry="5.8" fill="#ffee58" transform="rotate(6 381.7 254.9)" opacity="0.9"/>
<ellipse cx="409.9" cy="246.0" rx="12" ry="5.8" fill="#ffee58" transform="rotate(13 409.9 246.0)" opacity="0.95"/>
<ellipse cx="440.3" cy="261.6" rx="12" ry="5.8" fill="#ffee58" transform="rotate(20 440.3 261.6)" opacity="0.85"/>
<ellipse cx="436.9" cy="293.0" rx="12" ry="5.8" fill="#ffee58" transform="rotate(27 436.9 293.0)" opacity="0.9"/>
<ellipse cx="391.9" cy="309.6" rx="12" ry="5.8" fill="#ffee58" transform="rotate(34 391.9 309.6)" opacity="0.95"/>
<ellipse cx="342.6" cy="288.5" rx="12" ry="5.8" fill="#ffee58" transform="rotate(41 342.6 288.5)" opacity="0.85"/>
<ellipse cx="341.3" cy="270.0" rx="12" ry="5.8" fill="#ffee58" transform="rotate(48 341.3 270.0)" opacity="0.9"/>
<ellipse cx="400.3" cy="265.0" rx="12" ry="5.8" fill="#ffee58" transform="rotate(55 400.3 265.0)" opacity="0.95"/>
<ellipse cx="403.4" cy="264.6" rx="12" ry="5.8" fill="#ffee58" transform="rotate(62 403.4 264.6)" opacity="0.85"/>
<ellipse cx="410.0" cy="276.3" rx="12" ry="5.8" fill="#ffee58" transform="rotate(69 410.0 276.3)" opacity="0.9"/>
<ellipse cx="402.5" cy="289.8" rx="12" ry="5.8" fill="#ffee58" transform="rotate(76 402.5 289.8)" opacity="0.95"/>
<ellipse cx="381.0" cy="286.3" rx="12" ry="5.8" fill="#ffee58" transform="rotate(83 381.0 286.3)" opacity="0.85"/>
<ellipse cx="369.4" cy="261.4" rx="12" ry="5.8" fill="#ffee58" transform="rotate(90 369.4 261.4)" opacity="0.9"/>
<ellipse cx="389.3" cy="236.4" rx="12" ry="5.8" fill="#ffee58" transform="rotate(97 389.3 236.4)" opacity="0.95"/>
<ellipse cx="430.4" cy="240.0" rx="12" ry="5.8" fill="#ffee58" transform="rotate(104 430.4 240.0)" opacity="0.85"/>
<ellipse cx="452.4" cy="276.7" rx="12" ry="5.8" fill="#ffee58" transform="rotate(111 452.4 276.7)" opacity="0.9"/>
<ellipse cx="424.5" cy="270.0" rx="12" ry="5.8" fill="#ffee58" transform="rotate(118 424.5 270.0)" opacity="0.95"/>
<ellipse cx="363.3" cy="274.2" rx="12" ry="5.8" fill="#ffee58" transform="rotate(125 363.3 274.2)" opacity="0.85"/>
<ellipse cx="326.0" cy="269.9" rx="12" ry="5.8" fill="#ffee58" transform="rotate(132 326.0 269.9)" opacity="0.9"/>
<ellipse cx="399.5" cy="257.3" rx="12" ry="5.8" fill="#ffee58" transform="rotate(139 399.5 257.3)" opacity="0.95"/>
<ellipse cx="403.4" cy="251.9" rx="12" ry="5.8" fill="#ffee58" transform="rotate(146 403.4 251.9)" opacity="0.85"/>
<ellipse cx="414.9" cy="266.7" rx="12" ry="5.8" fill="#ffee58" transform="rotate(153 414.9 266.7)" opacity="0.9"/>
<ellipse cx="414.2" cy="292.9" rx="12" ry="5.8" fill="#ffee58" transform="rotate(160 414.2 292.9)" opacity="0.95"/>
<ellipse cx="391.5" cy="303.5" rx="12" ry="5.8" fill="#ffee58" transform="rotate(167 391.5 303.5)" opacity="0.85"/>

  </g>

  <!-- Spec Tag -->
  <g transform="translate(400, 415)">
    <rect x="-90" y="-15" width="180" height="30" rx="15" fill="#000000" fill-opacity="0.7" stroke="#ffee58" stroke-width="1.5"/>
    <text x="0" y="5" font-family="system-ui, -apple-system, sans-serif" font-size="12" font-weight="800" fill="#ffee58" letter-spacing="1" text-anchor="middle">5.00 mm Parboiled</text>
  </g>

  <!-- Title Card -->
  <rect x="90" y="455" width="620" height="110" rx="20" fill="#09090b" fill-opacity="0.9" stroke="#ffffff" stroke-width="1" stroke-opacity="0.12" filter="url(#shadow)"/>
  <text x="400" y="500" font-family="system-ui, -apple-system, sans-serif" font-size="28" font-weight="800" fill="#ffffff" text-anchor="middle">Ponni Parboiled</text>
  <text x="400" y="535" font-family="system-ui, -apple-system, sans-serif" font-size="14" font-weight="600" fill="#ffee58" letter-spacing="1.5" text-anchor="middle">OFFICIAL INDIAN EXPORT VARIETY</text>
</svg>